<svg width="24" height="24" viewBox="0 0 24 24" fill="none" xmlns="http://www.w3.org/2000/svg">
<path d="M1.19263 6.29154C-0.643413 8.12689 -0.277978 11.1262 1.72953 13.1329C2.99424 14.3972 4.69503 14.9362 6.08729 15.0601C6.1011 15.0613 6.11493 15.0622 6.12878 15.0627L14.5118 15.3978C14.7495 15.4073 14.9803 15.3171 15.1485 15.149C15.3168 14.9809 15.4071 14.7502 15.3978 14.5126L15.2513 10.7978L13.5429 10.7489L13.6575 13.6577L6.21838 13.3604C5.10036 13.2572 3.83198 12.824 2.93529 11.9276C1.38775 10.3807 1.41706 8.47781 2.39839 7.49685C2.96059 6.93486 3.49574 6.72509 4.06866 6.72018C4.68505 6.71489 5.44396 6.94618 6.4242 7.47443C6.76044 7.65562 7.1762 7.59115 7.44172 7.31665C7.70724 7.04214 7.75771 6.6246 7.56524 6.29478C6.99757 5.32198 6.75149 4.59266 6.74506 4.00895C6.73918 3.47519 6.93285 2.9641 7.49968 2.39748C8.48101 1.41652 10.3846 1.38723 11.9321 2.93418C12.851 3.85272 13.3233 5.17367 13.3638 6.20675L13.4524 8.45337L15.1608 8.50232L15.0677 6.14C15.0123 4.72738 14.3933 2.98381 13.1379 1.72888C11.1304 -0.277873 8.12996 -0.64317 6.29392 1.19218C5.46364 2.02215 5.02815 2.95588 5.03996 4.02773C5.04408 4.40129 5.10261 4.77689 5.20565 5.15523C4.81837 5.06205 4.43454 5.01242 4.05404 5.01568C2.97615 5.02492 2.02767 5.45682 1.19263 6.29154Z" fill="#79797D" fill-opacity="0.5"/>
<path d="M22.8074 17.7085C24.6434 15.8731 24.278 12.8738 22.2705 10.8671C21.0058 9.60285 19.305 9.06377 17.9127 8.93995C17.8989 8.93872 17.8851 8.93783 17.8712 8.93727L9.48823 8.60224C9.25055 8.59274 9.0197 8.68293 8.85146 8.85102C8.68321 9.0191 8.59286 9.24981 8.60222 9.4874L8.74909 13.213L10.4586 13.2893L10.3425 10.3423L17.7816 10.6396C18.8996 10.7428 20.168 11.176 21.0647 12.0724C22.6122 13.6193 22.5829 15.5222 21.6016 16.5032C21.0394 17.0651 20.5043 17.2749 19.9313 17.2798C19.315 17.2851 18.556 17.0538 17.5758 16.5256C17.2396 16.3444 16.8238 16.4088 16.5583 16.6834C16.2928 16.9579 16.2423 17.3754 16.4348 17.7052C17.0024 18.678 17.2485 19.4073 17.2549 19.991C17.2608 20.5248 17.0671 21.0359 16.5003 21.6025C15.519 22.5835 13.6154 22.6128 12.0679 21.0658C11.149 20.1473 10.6767 18.8263 10.6362 17.7932L10.5488 15.5771L8.83927 15.5008L8.93228 17.86C8.98765 19.2726 9.60671 21.0162 10.8621 22.2711C12.8696 24.2779 15.87 24.6432 17.7061 22.8078C18.5364 21.9779 18.9719 21.0441 18.96 19.9723C18.9559 19.5987 18.8974 19.2231 18.7944 18.8448C19.1816 18.9379 19.5655 18.9876 19.946 18.9843C21.0239 18.9751 21.9723 18.5432 22.8074 17.7085Z" fill="#79797D" fill-opacity="0.5"/>
</svg>
