<svg width="55" height="55" viewBox="0 0 55 55" fill="none" xmlns="http://www.w3.org/2000/svg">
<path d="M15.5586 0.537598C6.96035 0.535944 0.792003 8.56188 0.793778 18.1372C0.794898 24.1696 3.51556 29.5123 6.48618 33.1287C6.51564 33.1645 6.54596 33.1997 6.57711 33.2341L25.4251 54.0294C25.9595 54.619 26.7113 54.9545 27.499 54.9548C28.2866 54.9552 29.0385 54.6204 29.573 54.0313L43.094 39.1298C43.094 39.1298 40.7252 36.5748 39.2075 34.9378L27.4996 47.8412L10.7737 29.3871C8.39709 26.4741 6.44118 22.4153 6.44038 18.1383C6.43902 10.7569 10.964 6.28789 15.5596 6.28877C18.1925 6.28928 19.937 7.06542 21.2903 8.42031C22.7462 9.87798 23.9818 12.2399 25.0404 15.8382C25.4035 17.0724 26.5282 17.9104 27.7929 17.8889C29.0576 17.8675 30.1537 16.9919 30.4754 15.746C31.4241 12.0715 32.5559 9.7449 33.9078 8.33723C35.1441 7.04999 36.7946 6.29286 39.4491 6.29337C44.0447 6.29425 48.5714 10.765 48.5728 18.1464C48.5736 22.5293 46.5861 26.8067 44.2615 29.3676L39.2075 34.9378C40.7252 36.5748 43.094 39.1298 43.094 39.1298L48.4083 33.2727C51.5869 29.771 54.2205 24.1355 54.2194 18.1475C54.2176 8.57215 48.0463 0.543848 39.4481 0.542193C35.5598 0.541446 32.3532 1.72993 29.8706 4.3148C29.0054 5.21569 28.2628 6.25123 27.6181 7.39947C26.9293 6.25344 26.1466 5.21948 25.2479 4.31965C22.7019 1.77056 19.4691 0.53835 15.5586 0.537598Z" fill="#371569"/>
</svg>
