<svg width="22" height="22" viewBox="0 0 22 22" fill="none" xmlns="http://www.w3.org/2000/svg">
<path d="M15.6154 15.6154V7.38467C15.6154 6.83239 15.1677 6.38467 14.6154 6.38467H6.38467M15.6154 15.6154V19.2308C15.6154 19.7831 15.1677 20.2308 14.6154 20.2308H2.76929C2.217 20.2308 1.76929 19.7831 1.76929 19.2308V7.38467C1.76929 6.83239 2.217 6.38467 2.76929 6.38467H6.38467M15.6154 15.6154H19.2308C19.7831 15.6154 20.2308 15.1677 20.2308 14.6154V7.53852V2.76929C20.2308 2.217 19.7831 1.76929 19.2308 1.76929H7.38467C6.83239 1.76929 6.38467 2.217 6.38467 2.76929V6.38467" stroke="#7F39FB" stroke-width="2" stroke-linecap="round"/>
</svg>
