<svg width="24" height="24" viewBox="0 0 24 24" fill="none" xmlns="http://www.w3.org/2000/svg">
<path d="M12.5355 14.5383C12.5155 14.7988 12.2983 15 12.037 15H11.9571C11.6983 15 11.4823 14.8025 11.4591 14.5447L10.9615 9V7C10.9615 6.44772 11.4093 6 11.9615 6C12.5138 6 12.9615 6.44772 12.9615 7V9L12.5355 14.5383Z" fill="#79797D"/>
<path fill-rule="evenodd" clip-rule="evenodd" d="M12 0C5.37258 0 0 5.37258 0 12C0 18.6274 5.37258 24 12 24C18.6274 24 24 18.6274 24 12C24 5.37258 18.6274 0 12 0ZM12 2.5C6.47715 2.5 2.5 6.47715 2.5 12C2.5 17.5228 6.47715 21.5 12 21.5C17.5228 21.5 21.5 17.5228 21.5 12C21.5 6.47715 17.5228 2.5 12 2.5Z" fill="#79797D"/>
<path d="M11 17C11 16.4477 11.4477 16 12 16C12.5523 16 13 16.4477 13 17C13 17.5523 12.5523 18 12 18C11.4477 18 11 17.5523 11 17Z" fill="#79797D"/>
</svg>
