<svg width="24" height="24" viewBox="0 0 24 24" fill="none" xmlns="http://www.w3.org/2000/svg">
<path d="M11.5 3.5H12.5L13 11L18.5 11.5V12.5L13 13H12C11.4477 13 11 12.5523 11 12V11L11.5 3.5Z" fill="#79797D"/>
<path fill-rule="evenodd" clip-rule="evenodd" d="M12 24C18.6274 24 24 18.6274 24 12C24 5.37258 18.6274 0 12 0C5.37258 0 0 5.37258 0 12C0 18.6274 5.37258 24 12 24ZM12 21.5C17.5228 21.5 21.5 17.5228 21.5 12C21.5 6.47715 17.5228 2.5 12 2.5C6.47715 2.5 2.5 6.47715 2.5 12C2.5 17.5228 6.47715 21.5 12 21.5Z" fill="#79797D"/>
</svg>
