<svg width="63" height="48" viewBox="0 0 63 48" fill="none" xmlns="http://www.w3.org/2000/svg">
<path d="M2.71429 35.113L18.2143 35.1133L32.2562 47.4458C33.6879 48.7032 35.9286 47.6826 35.9286 45.7731V2.22692C35.9286 0.31736 33.6879 -0.70321 32.2562 0.554246L18.2143 12.887H2.71429C1.49137 12.887 0.5 13.8821 0.5 15.1096V32.8904C0.5 34.1179 1.49137 35.113 2.71429 35.113Z" fill="#371569" fill-opacity="0.65"/>
<path d="M41.462 33.3314C40.8553 33.4077 40.3571 32.9028 40.3571 32.2891C40.3571 31.6753 40.8566 31.1875 41.4595 31.0854C44.5939 30.5542 47 27.7963 47 24.4486C47 21.1009 44.5939 18.3431 41.4595 17.8119C40.8566 17.7097 40.3571 17.2219 40.3571 16.6082C40.3571 15.9944 40.8553 15.4895 41.462 15.5658C45.8323 16.1155 49.2143 19.8829 49.2143 24.4486C49.2143 29.0144 45.8323 32.7818 41.462 33.3314Z" fill="#371569" fill-opacity="0.65"/>
<path d="M44.7857 39.0261C44.7857 39.6399 45.284 40.1453 45.8896 40.0605C51.4859 39.2771 55.8571 32.6005 55.8571 24.4801C55.8571 16.3597 51.4859 9.68316 45.8896 8.89971C45.284 8.81493 44.7857 9.3204 44.7857 9.93415C44.7857 10.5479 45.2857 11.0354 45.8859 11.1528C47.6609 11.4999 49.3893 12.6879 50.8087 14.6952C52.5168 17.1108 53.6429 20.5632 53.6429 24.4801C53.6429 28.397 52.5168 31.8495 50.8087 34.2651C49.3893 36.2724 47.6609 37.4603 45.8859 37.8075C45.2857 37.9249 44.7857 38.4124 44.7857 39.0261Z" fill="#371569" fill-opacity="0.65"/>
<path d="M50.3185 46.7163C49.7128 46.8 49.2143 46.2947 49.2143 45.681C49.2143 45.0672 49.714 44.5792 50.3145 44.4633C52.5529 44.0315 54.8243 42.2796 56.7079 39.1154C58.8742 35.4763 60.2857 30.3051 60.2857 24.474C60.2857 18.6429 58.8742 13.4717 56.7079 9.83262C54.8243 6.66841 52.5529 4.9165 50.3145 4.48466C49.714 4.36882 49.2143 3.88076 49.2143 3.26701C49.2143 2.65326 49.7128 2.14798 50.3185 2.2317C57.1394 3.17448 62.5 12.7726 62.5 24.474C62.5 36.1754 57.1394 45.7735 50.3185 46.7163Z" fill="#371569" fill-opacity="0.65"/>
</svg>
