<svg width="24" height="24" viewBox="0 0 24 24" fill="none" xmlns="http://www.w3.org/2000/svg">
<rect width="24" height="24" rx="4" fill="white" fill-opacity="0.75"/>
<path d="M14.1201 9.01282C13.9261 9.20932 13.9261 9.52792 14.1201 9.72442C14.3141 9.92092 14.6286 9.92092 14.8227 9.72442L14.1201 9.01282ZM19.5641 4.21059L20.0559 4.28175C20.078 4.12496 20.026 3.96678 19.9154 3.85479C19.8048 3.7428 19.6486 3.69007 19.4938 3.71247L19.5641 4.21059ZM18.3448 9.29746C18.306 9.57256 18.4947 9.82744 18.7663 9.86674C19.0379 9.90604 19.2896 9.71488 19.3284 9.43978L18.3448 9.29746ZM14.4011 4.44933C14.1295 4.48863 13.9408 4.7435 13.9796 5.01861C14.0184 5.29371 14.27 5.48487 14.5416 5.44557L14.4011 4.44933ZM14.8227 9.72442L19.9154 4.56638L19.2128 3.85479L14.1201 9.01282L14.8227 9.72442ZM19.0723 4.13943L18.3448 9.29746L19.3284 9.43978L20.0559 4.28175L19.0723 4.13943ZM19.4938 3.71247L14.4011 4.44933L14.5416 5.44557L19.6344 4.7087L19.4938 3.71247Z" fill="#7F39FB"/>
<path d="M14.8227 14.2754C14.6286 14.0789 14.3141 14.0789 14.1201 14.2754C13.9261 14.4719 13.9261 14.7905 14.1201 14.987L14.8227 14.2754ZM19.5641 19.7892L19.4938 20.2873C19.6486 20.3097 19.8048 20.257 19.9154 20.145C20.026 20.033 20.078 19.8748 20.0559 19.718L19.5641 19.7892ZM14.5416 18.5542C14.27 18.5149 14.0184 18.7061 13.9796 18.9812C13.9407 19.2563 14.1295 19.5112 14.4011 19.5505L14.5416 18.5542ZM19.3284 14.56C19.2896 14.2849 19.0379 14.0937 18.7663 14.133C18.4947 14.1723 18.3059 14.4272 18.3447 14.7023L19.3284 14.56ZM14.1201 14.987L19.2128 20.145L19.9154 19.4334L14.8227 14.2754L14.1201 14.987ZM19.6343 19.2911L14.5416 18.5542L14.4011 19.5505L19.4938 20.2873L19.6343 19.2911ZM20.0559 19.718L19.3284 14.56L18.3447 14.7023L19.0723 19.8604L20.0559 19.718Z" fill="#7F39FB"/>
<path d="M8.92387 9.72463C9.11789 9.92113 9.43245 9.92113 9.62646 9.72463C9.82047 9.52813 9.82047 9.20954 9.62646 9.01303L8.92387 9.72463ZM4.18244 4.2108L4.2527 3.71268C4.0979 3.69028 3.94172 3.74301 3.83114 3.855C3.72057 3.96699 3.66851 4.12517 3.69063 4.28196L4.18244 4.2108ZM9.20491 5.44578C9.47653 5.48508 9.72817 5.29392 9.76698 5.01882C9.80578 4.74372 9.61705 4.48884 9.34543 4.44954L9.20491 5.44578ZM4.41816 9.43999C4.45696 9.7151 4.70861 9.90625 4.98023 9.86695C5.25185 9.82765 5.44058 9.57278 5.40178 9.29767L4.41816 9.43999ZM9.62646 9.01303L4.53373 3.855L3.83114 4.5666L8.92387 9.72463L9.62646 9.01303ZM4.11218 4.70892L9.20491 5.44578L9.34543 4.44954L4.2527 3.71268L4.11218 4.70892ZM3.69063 4.28196L4.41816 9.43999L5.40178 9.29767L4.67425 4.13964L3.69063 4.28196Z" fill="#7F39FB"/>
<path d="M9.62652 14.9872C9.82054 14.7907 9.82054 14.4721 9.62652 14.2756C9.43251 14.0791 9.11795 14.0791 8.92393 14.2756L9.62652 14.9872ZM4.1825 19.7894L3.69069 19.7183C3.66857 19.875 3.72063 20.0332 3.8312 20.1452C3.94178 20.2572 4.09796 20.3099 4.25276 20.2875L4.1825 19.7894ZM5.40184 14.7025C5.44065 14.4274 5.25191 14.1726 4.98029 14.1333C4.70867 14.094 4.45702 14.2851 4.41822 14.5602L5.40184 14.7025ZM9.34549 19.5507C9.61711 19.5114 9.80584 19.2565 9.76704 18.9814C9.72824 18.7063 9.47659 18.5151 9.20497 18.5544L9.34549 19.5507ZM8.92393 14.2756L3.8312 19.4336L4.53379 20.1452L9.62652 14.9872L8.92393 14.2756ZM4.67431 19.8606L5.40184 14.7025L4.41822 14.5602L3.69069 19.7183L4.67431 19.8606ZM4.25276 20.2875L9.34549 19.5507L9.20497 18.5544L4.11224 19.2913L4.25276 20.2875Z" fill="#7F39FB"/>
</svg>
