<svg width="24" height="24" viewBox="0 0 24 24" fill="none" xmlns="http://www.w3.org/2000/svg">
<rect y="5.49414" width="21.2271" height="13.5082" rx="3" transform="rotate(-15 0 5.49414)" fill="white"/>
<rect x="0.918559" y="6.02447" width="19.7271" height="12.0082" rx="2.25" transform="rotate(-15 0.918559 6.02447)" stroke="#79797D" stroke-opacity="0.5" stroke-width="1.5"/>
<mask id="path-3-inside-1_430_1648" fill="white">
<path d="M0.588654 8.07763C0.588654 6.42078 1.9318 5.07764 3.58865 5.07764H20.7455C22.4024 5.07764 23.7455 6.42078 23.7455 8.07764V19.4453C23.7455 21.1021 22.4024 22.4453 20.7455 22.4453H3.58865C1.9318 22.4453 0.588654 21.1021 0.588654 19.4453V8.07763Z"/>
</mask>
<path d="M0.588654 8.07763C0.588654 6.42078 1.9318 5.07764 3.58865 5.07764H20.7455C22.4024 5.07764 23.7455 6.42078 23.7455 8.07764V19.4453C23.7455 21.1021 22.4024 22.4453 20.7455 22.4453H3.58865C1.9318 22.4453 0.588654 21.1021 0.588654 19.4453V8.07763Z" fill="white"/>
<path d="M3.58865 6.57764H20.7455V3.57764H3.58865V6.57764ZM22.2455 8.07764V19.4453H25.2455V8.07764H22.2455ZM20.7455 20.9453H3.58865V23.9453H20.7455V20.9453ZM2.08865 19.4453V8.07763H-0.911346V19.4453H2.08865ZM3.58865 20.9453C2.76023 20.9453 2.08865 20.2737 2.08865 19.4453H-0.911346C-0.911346 21.9306 1.10337 23.9453 3.58865 23.9453V20.9453ZM22.2455 19.4453C22.2455 20.2737 21.5739 20.9453 20.7455 20.9453V23.9453C23.2308 23.9453 25.2455 21.9306 25.2455 19.4453H22.2455ZM20.7455 6.57764C21.5739 6.57764 22.2455 7.24921 22.2455 8.07764H25.2455C25.2455 5.59236 23.2308 3.57764 20.7455 3.57764V6.57764ZM3.58865 3.57764C1.10337 3.57764 -0.911346 5.59235 -0.911346 8.07763H2.08865C2.08865 7.24921 2.76022 6.57764 3.58865 6.57764V3.57764Z" fill="#79797D" fill-opacity="0.5" mask="url(#path-3-inside-1_430_1648)"/>
<path d="M14.5718 12.1577C14.389 12.0545 14.154 12.0545 13.9452 12.1577L12.483 13.0092L11.4909 13.5511L10.0548 14.4026C9.87206 14.5058 9.63708 14.5058 9.4282 14.4026L8.30548 13.7317C8.12272 13.6285 7.99217 13.4221 7.99217 13.1898V11.8997C7.99217 11.6933 8.09661 11.4868 8.30548 11.3578L9.4282 10.7127C9.61097 10.6095 9.84595 10.6095 10.0548 10.7127L11.1775 11.3836C11.3603 11.4868 11.4909 11.6933 11.4909 11.9255V12.777L12.483 12.2093V11.332C12.483 11.1256 12.3786 10.9192 12.1697 10.7902L10.0809 9.57741C9.89817 9.4742 9.66319 9.4742 9.45431 9.57741L7.31332 10.816C7.10444 10.9192 7 11.1256 7 11.332V13.7575C7 13.9639 7.10444 14.1704 7.31332 14.2994L9.4282 15.5121C9.61097 15.6153 9.84595 15.6153 10.0548 15.5121L11.4909 14.6864L12.483 14.1188L13.9191 13.2931C14.1018 13.1898 14.3368 13.1898 14.5457 13.2931L15.6684 13.9381C15.8512 14.0414 15.9817 14.2478 15.9817 14.48V15.7702C15.9817 15.9766 15.8773 16.183 15.6684 16.312L14.5718 16.9571C14.389 17.0603 14.154 17.0603 13.9452 16.9571L12.8225 16.312C12.6397 16.2088 12.5091 16.0024 12.5091 15.7702V14.9445L11.517 15.5121V16.3636C11.517 16.5701 11.6214 16.7765 11.8303 16.9055L13.9452 18.1182C14.1279 18.2215 14.3629 18.2215 14.5718 18.1182L16.6867 16.9055C16.8695 16.8023 17 16.5959 17 16.3636V13.9123C17 13.7059 16.8956 13.4995 16.6867 13.3705L14.5718 12.1577Z" fill="#79797D" fill-opacity="0.5"/>
</svg>
