<svg width="24" height="24" viewBox="0 0 24 24" fill="none" xmlns="http://www.w3.org/2000/svg">
<rect x="0.918559" y="6.02447" width="19.7271" height="12.0082" rx="2.25" transform="rotate(-15 0.918559 6.02447)" fill="white" stroke="#371569" stroke-width="1.5"/>
<path d="M3.58865 5.82764H20.7455C21.9882 5.82764 22.9955 6.835 22.9955 8.07764V19.4453C22.9955 20.6879 21.9882 21.6953 20.7455 21.6953H3.58865C2.34601 21.6953 1.33865 20.6879 1.33865 19.4453V8.07763C1.33865 6.83499 2.34601 5.82764 3.58865 5.82764Z" fill="white" stroke="#371569" stroke-width="1.5"/>
<path d="M14.5718 12.1577C14.389 12.0545 14.154 12.0545 13.9452 12.1577L12.483 13.0092L11.4909 13.5511L10.0548 14.4026C9.87206 14.5058 9.63708 14.5058 9.4282 14.4026L8.30548 13.7317C8.12272 13.6285 7.99217 13.4221 7.99217 13.1898V11.8997C7.99217 11.6933 8.09661 11.4868 8.30548 11.3578L9.4282 10.7127C9.61097 10.6095 9.84595 10.6095 10.0548 10.7127L11.1775 11.3836C11.3603 11.4868 11.4909 11.6933 11.4909 11.9255V12.777L12.483 12.2093V11.332C12.483 11.1256 12.3786 10.9192 12.1697 10.7902L10.0809 9.57741C9.89817 9.4742 9.66319 9.4742 9.45431 9.57741L7.31332 10.816C7.10444 10.9192 7 11.1256 7 11.332V13.7575C7 13.9639 7.10444 14.1704 7.31332 14.2994L9.4282 15.5121C9.61097 15.6153 9.84595 15.6153 10.0548 15.5121L11.4909 14.6864L12.483 14.1188L13.9191 13.2931C14.1018 13.1898 14.3368 13.1898 14.5457 13.2931L15.6684 13.9381C15.8512 14.0414 15.9817 14.2478 15.9817 14.48V15.7702C15.9817 15.9766 15.8773 16.183 15.6684 16.312L14.5718 16.9571C14.389 17.0603 14.154 17.0603 13.9452 16.9571L12.8225 16.312C12.6397 16.2088 12.5091 16.0024 12.5091 15.7702V14.9445L11.517 15.5121V16.3636C11.517 16.5701 11.6214 16.7765 11.8303 16.9055L13.9452 18.1182C14.1279 18.2215 14.3629 18.2215 14.5718 18.1182L16.6867 16.9055C16.8695 16.8023 17 16.5959 17 16.3636V13.9123C17 13.7059 16.8956 13.4995 16.6867 13.3705L14.5718 12.1577Z" fill="#8247E5"/>
</svg>
