<svg width="47" height="40" viewBox="0 0 47 40" fill="none" xmlns="http://www.w3.org/2000/svg">
<path d="M35.3303 12.2255C34.4896 11.7507 33.4086 11.7507 32.4478 12.2255L25.7219 16.1424L21.158 18.635L14.5522 22.5519C13.7115 23.0267 12.6305 23.0267 11.6697 22.5519L6.50522 19.4659C5.66449 18.9911 5.06397 18.0415 5.06397 16.9733V11.0386C5.06397 10.089 5.54439 9.13947 6.50522 8.54599L11.6697 5.57864C12.5104 5.10386 13.5914 5.10386 14.5522 5.57864L19.7167 8.66469C20.5574 9.13947 21.158 10.089 21.158 11.1573V15.0742L25.7219 12.4629V8.4273C25.7219 7.47775 25.2415 6.52819 24.2807 5.93472L14.6723 0.356083C13.8316 -0.118694 12.7507 -0.118694 11.7898 0.356083L1.94125 6.05341C0.980418 6.52819 0.5 7.47775 0.5 8.4273V19.5846C0.5 20.5341 0.980418 21.4837 1.94125 22.0772L11.6697 27.6558C12.5104 28.1306 13.5914 28.1306 14.5522 27.6558L21.158 23.8576L25.7219 21.2463L32.3277 17.4481C33.1684 16.9733 34.2494 16.9733 35.2102 17.4481L40.3747 20.4154C41.2154 20.8902 41.8159 21.8398 41.8159 22.908V28.8427C41.8159 29.7923 41.3355 30.7418 40.3747 31.3353L35.3303 34.3027C34.4896 34.7775 33.4086 34.7775 32.4478 34.3027L27.2833 31.3353C26.4426 30.8605 25.842 29.911 25.842 28.8427V25.0445L21.2781 27.6558V31.5727C21.2781 32.5223 21.7585 33.4718 22.7193 34.0653L32.4478 39.6439C33.2885 40.1187 34.3695 40.1187 35.3303 39.6439L45.0587 34.0653C45.8995 33.5905 46.5 32.641 46.5 31.5727V20.2967C46.5 19.3472 46.0196 18.3976 45.0587 17.8042L35.3303 12.2255Z" fill="#8247E5"/>
</svg>
