<svg width="80" height="81" viewBox="0 0 80 81" fill="none" xmlns="http://www.w3.org/2000/svg">
<path d="M22.4136 0.791504C9.75069 0.789068 0.666393 12.6091 0.669007 26.7109C0.670656 35.595 4.67745 43.4634 9.05237 48.7893C9.09575 48.8421 9.14041 48.8938 9.18628 48.9445L36.9442 79.5703C37.7313 80.4387 38.8385 80.9328 39.9985 80.9332C41.1584 80.9338 42.2658 80.4408 43.053 79.5732L62.9657 57.6273C62.9657 57.6273 59.4771 53.8645 57.242 51.4536L39.9994 70.4568L15.3667 43.279C11.8666 38.9889 8.98609 33.0114 8.98492 26.7126C8.98291 15.8418 15.647 9.26011 22.415 9.26142C26.2926 9.26217 28.8618 10.4052 30.8548 12.4006C32.9989 14.5473 34.8186 18.0258 36.3777 23.3251C36.9124 25.1428 38.5688 26.3769 40.4314 26.3452C42.2939 26.3137 43.9082 25.0242 44.3819 23.1894C45.7791 17.7778 47.446 14.3514 49.4369 12.2782C51.2577 10.3825 53.6884 9.26743 57.5978 9.26818C64.3658 9.26949 71.0324 15.8536 71.0345 26.7244C71.0357 33.1792 68.1086 39.4788 64.6851 43.2502L57.242 51.4536C59.4771 53.8645 62.9657 57.6273 62.9657 57.6273L70.7922 49.0014C75.4734 43.8444 79.352 35.5447 79.3504 26.7261C79.3477 12.6242 70.2591 0.800708 57.5963 0.798272C51.8699 0.797171 47.1474 2.54748 43.4912 6.3543C42.217 7.68106 41.1234 9.20613 40.1739 10.8972C39.1595 9.20938 38.0068 7.68664 36.6833 6.36144C32.9337 2.60731 28.1727 0.792611 22.4136 0.791504Z" fill="url(#paint0_linear_430_1465)"/>
<defs>
<linearGradient id="paint0_linear_430_1465" x1="-54.8013" y1="42.3635" x2="130.78" y2="29.6198" gradientUnits="userSpaceOnUse">
<stop stop-color="#B20CFC"/>
<stop offset="1" stop-color="#6E01F0"/>
</linearGradient>
</defs>
</svg>
