<svg width="24" height="24" viewBox="0 0 24 24" fill="none" xmlns="http://www.w3.org/2000/svg">
<g clip-path="url(#clip0_83_1105)">
<path d="M10.9615 10.5C10.9615 10.2239 11.1854 10 11.4615 10H11.9615H12.4615C12.7377 10 12.9615 10.2239 12.9615 10.5V11V14L12.9935 16.4936C12.9971 16.7722 12.7722 17 12.4935 17H11.5C11.2239 17 11 16.7761 11 16.5V14L10.9615 11V10.5Z" fill="#79797D"/>
<path fill-rule="evenodd" clip-rule="evenodd" d="M12 24C18.6274 24 24 18.6274 24 12C24 5.37258 18.6274 -1.15877e-06 12 0C5.37258 1.15878e-06 -1.15878e-06 5.37258 0 12C1.15877e-06 18.6274 5.37259 24 12 24ZM12 21.5C17.5229 21.5 21.5 17.5228 21.5 12C21.5 6.47715 17.5228 2.5 12 2.5C6.47715 2.5 2.5 6.47715 2.5 12C2.5 17.5228 6.47716 21.5 12 21.5Z" fill="#79797D"/>
<path d="M12.9615 8C12.9615 8.55228 12.5138 9 11.9615 9C11.4093 9 10.9615 8.55229 10.9615 8C10.9615 7.44772 11.4093 7 11.9615 7C12.5138 7 12.9615 7.44771 12.9615 8Z" fill="#79797D"/>
</g>
<defs>
<clipPath id="clip0_83_1105">
<rect width="24" height="24" fill="white"/>
</clipPath>
</defs>
</svg>
