<svg width="36" height="32" viewBox="0 0 36 32" fill="none" xmlns="http://www.w3.org/2000/svg">
<path d="M1.26119 21.2944C0.549818 20.5273 0.549818 19.3416 1.26119 18.5745L3.39842 16.2699C4.18983 15.4165 5.53994 15.4165 6.33135 16.2699L11.1892 21.5082L29.6687 1.58133C30.4601 0.727934 31.8102 0.727935 32.6016 1.58133L34.7388 3.88595C35.4502 4.65304 35.4502 5.83876 34.7388 6.60585L12.6557 30.4187C11.8642 31.2721 10.5141 31.2721 9.72274 30.4187L1.26119 21.2944Z" fill="#79797D"/>
<path d="M11.1892 21.5082L10.8226 21.8482L11.1892 22.2435L11.5558 21.8482L11.1892 21.5082ZM34.7388 3.88595L35.1054 3.54596L34.7388 3.88595ZM29.6687 1.58133L30.0353 1.92132L29.6687 1.58133ZM32.6016 1.58133L32.9682 1.24134L32.6016 1.58133ZM3.39842 16.2699L3.0318 15.9299L3.39842 16.2699ZM12.6557 30.4187L12.289 30.0787L12.6557 30.4187ZM1.26119 18.5745L0.894576 18.2345L1.26119 18.5745ZM1.26119 21.2944L1.62781 20.9544L1.26119 21.2944ZM1.62781 18.9145L3.76503 16.6098L3.0318 15.9299L0.894576 18.2345L1.62781 18.9145ZM5.96474 16.6098L10.8226 21.8482L11.5558 21.1682L6.69797 15.9299L5.96474 16.6098ZM11.5558 21.8482L30.0353 1.92132L29.302 1.24134L10.8226 21.1682L11.5558 21.8482ZM32.235 1.92132L34.3722 4.22594L35.1054 3.54596L32.9682 1.24134L32.235 1.92132ZM34.3722 6.26587L12.289 30.0787L13.0223 30.7587L35.1054 6.94584L34.3722 6.26587ZM10.0893 30.0787L1.62781 20.9544L0.894575 21.6344L9.35612 30.7587L10.0893 30.0787ZM34.3722 4.22594C34.9057 4.80126 34.9057 5.69055 34.3722 6.26587L35.1054 6.94584C35.9947 5.98698 35.9947 4.50483 35.1054 3.54596L34.3722 4.22594ZM30.0353 1.92132C30.6288 1.28127 31.6414 1.28127 32.235 1.92132L32.9682 1.24134C31.979 0.174598 30.2913 0.174598 29.302 1.24134L30.0353 1.92132ZM3.76503 16.6098C4.35859 15.9698 5.37118 15.9698 5.96474 16.6098L6.69797 15.9299C5.70871 14.8631 4.02106 14.8631 3.0318 15.9299L3.76503 16.6098ZM12.289 30.0787C11.6955 30.7187 10.6829 30.7187 10.0893 30.0787L9.35612 30.7587C10.3454 31.8254 12.033 31.8254 13.0223 30.7587L12.289 30.0787ZM0.894576 18.2345C0.00535667 19.1934 0.00535631 20.6755 0.894575 21.6344L1.62781 20.9544C1.09428 20.3791 1.09428 19.4898 1.62781 18.9145L0.894576 18.2345Z" fill="#79797D"/>
</svg>
